<svg width="147" height="206" viewBox="0 0 147 206" fill="none" xmlns="http://www.w3.org/2000/svg">
<path d="M108.237 0H37.0967C19.9225 0 6 13.9225 6 31.0967V102.237C6 119.411 19.9225 133.333 37.0967 133.333H108.237C125.411 133.333 139.333 119.411 139.333 102.237V31.0967C139.333 13.9225 125.411 0 108.237 0Z" fill="#ADBDE1"/>
<path d="M50.6791 40.4329H62.3582V52.112C62.3577 55.2093 61.1271 58.1796 58.9369 60.3698C56.7468 62.5599 53.7764 63.7906 50.6791 63.7911C47.5818 63.7906 44.6115 62.5599 42.4213 60.3698C40.2312 58.1796 39.0005 55.2093 39 52.112C39 49.0145 40.2305 46.0439 42.4207 43.8536C44.611 41.6633 47.5816 40.4329 50.6791 40.4329Z" fill="#120D36"/>
<path d="M66.3217 52.394V59.9677H97.0161C99.6639 59.9677 102.203 58.9158 104.076 57.0435C105.948 55.1712 107 52.6317 107 49.9839C107 47.336 105.948 44.7965 104.076 42.9242C102.203 41.0519 99.6639 40 97.0161 40H78.7276C75.4379 40.0005 72.283 41.3075 69.9566 43.6335C67.6302 45.9595 66.3228 49.1142 66.3217 52.4039V52.394Z" fill="#120D36"/>
<path d="M70.6847 63.9314H85.8602V79.1068C85.8602 83.1316 84.2613 86.9916 81.4154 89.8375C78.5694 92.6835 74.7095 94.2823 70.6847 94.2823C66.66 94.2823 62.8 92.6835 59.9541 89.8375C57.1081 86.9916 55.5093 83.1316 55.5093 79.1068C55.5093 75.0821 57.1081 71.2221 59.9541 68.3762C62.8 65.5302 66.66 63.9314 70.6847 63.9314Z" fill="#120D36"/>
<path d="M14.8623 197.49C12.9256 197.49 11.1289 197.187 9.47227 196.58C7.83893 195.95 6.4156 195.063 5.20227 193.92C4.01227 192.777 3.07893 191.435 2.40227 189.895C1.7256 188.332 1.38727 186.617 1.38727 184.75C1.38727 182.883 1.7256 181.18 2.40227 179.64C3.07893 178.077 4.01227 176.723 5.20227 175.58C6.4156 174.437 7.83893 173.562 9.47227 172.955C11.1289 172.325 12.9256 172.01 14.8623 172.01C17.1256 172.01 19.1439 172.407 20.9173 173.2C22.7139 173.993 24.2073 175.137 25.3973 176.63L20.9873 180.62C20.1939 179.687 19.3189 178.975 18.3623 178.485C17.4289 177.995 16.3789 177.75 15.2123 177.75C14.2089 177.75 13.2873 177.913 12.4473 178.24C11.6073 178.567 10.8839 179.045 10.2773 179.675C9.69393 180.282 9.22727 181.017 8.87727 181.88C8.5506 182.743 8.38727 183.7 8.38727 184.75C8.38727 185.8 8.5506 186.757 8.87727 187.62C9.22727 188.483 9.69393 189.23 10.2773 189.86C10.8839 190.467 11.6073 190.933 12.4473 191.26C13.2873 191.587 14.2089 191.75 15.2123 191.75C16.3789 191.75 17.4289 191.505 18.3623 191.015C19.3189 190.525 20.1939 189.813 20.9873 188.88L25.3973 192.87C24.2073 194.34 22.7139 195.483 20.9173 196.3C19.1439 197.093 17.1256 197.49 14.8623 197.49ZM39.5529 197.49C35.9362 197.49 33.1129 196.498 31.0829 194.515C29.0529 192.532 28.0379 189.72 28.0379 186.08V172.5H34.9679V185.87C34.9679 187.97 35.3762 189.475 36.1929 190.385C37.0329 191.295 38.1762 191.75 39.6229 191.75C41.0695 191.75 42.2012 191.295 43.0179 190.385C43.8345 189.475 44.2429 187.97 44.2429 185.87V172.5H51.0679V186.08C51.0679 189.72 50.0529 192.532 48.0229 194.515C45.9929 196.498 43.1695 197.49 39.5529 197.49ZM61.9575 191.575L61.5725 183.805L72.1075 172.5H79.7375L69.2375 183.875L65.3875 187.9L61.9575 191.575ZM55.7625 197V172.5H62.6225V197H55.7625ZM72.2125 197L64.2325 186.885L68.7475 182.055L80.2625 197H72.2125ZM86.7345 197L78.7895 172.5H85.9295L92.6145 193.71H89.0095L96.0445 172.5H102.414L109.064 193.71H105.599L112.494 172.5H119.109L111.164 197H103.744L98.0745 178.975H100.069L94.1545 197H86.7345ZM117.798 197L128.613 172.5H135.438L146.288 197H139.078L130.608 175.895H133.338L124.868 197H117.798ZM123.713 192.24L125.498 187.13H137.468L139.253 192.24H123.713Z" fill="#ADBDE1"/>
</svg>
