<svg width="40" height="32" viewBox="0 0 40 32" fill="none" xmlns="http://www.w3.org/2000/svg">
<path d="M6.87006 0.254395H13.7401V7.12446C13.7398 8.94642 13.0159 10.6937 11.7276 11.982C10.4393 13.2703 8.69202 13.9942 6.87006 13.9945C5.04811 13.9942 3.30086 13.2703 2.01254 11.982C0.72422 10.6937 0.000311419 8.94642 0 7.12446C0 5.3024 0.723808 3.55498 2.0122 2.26659C3.30058 0.978203 5.04801 0.254395 6.87006 0.254395Z" fill="#ADBDE1"/>
<path d="M16.0717 7.29056V11.7457H34.1272C35.6847 11.7457 37.1785 11.127 38.2799 10.0256C39.3813 8.92422 40 7.43043 40 5.87285C40 4.31528 39.3813 2.82149 38.2799 1.72012C37.1785 0.618745 35.6847 0 34.1272 0H23.3693C21.4341 0.000311317 19.5783 0.769103 18.2098 2.13735C16.8414 3.50559 16.0723 5.36129 16.0717 7.29643V7.29056Z" fill="#ADBDE1"/>
<path d="M18.638 14.0776H27.5648V23.0044C27.5648 25.3719 26.6243 27.6424 24.9502 29.3165C23.2761 30.9906 21.0056 31.9311 18.638 31.9311C16.2705 31.9311 14 30.9906 12.3259 29.3165C10.6518 27.6424 9.7113 25.3719 9.7113 23.0044C9.7113 20.6369 10.6518 18.3663 12.3259 16.6922C14 15.0181 16.2705 14.0776 18.638 14.0776Z" fill="#ADBDE1"/>
</svg>
